<svg width="200" height="200"><line x1="100" y1="100" x2="100" y2="90" style="stroke:rgb(255,0,0); stroke-width:1"/>
<path fill="none" style="stroke:rgb(255,0,0)" d="M 99.99999 0 L 99.99999 0 L 101.57072 0.013702393 L 103.14095 0.05482483 L 104.710236 0.12334442 L 106.27808 0.21923065 L 107.844025 0.3424759 L 109.40757 0.49302673 L 110.96825 0.67084503 L 112.52559 0.8758774 L 114.07912 1.1080551 L 115.62835 1.367302 L 117.17282 1.6535568 L 118.71207 1.9667206 L 120.24561 2.3067017 L 121.772995 2.6733932 L 123.29374 3.066681 L 124.80739 3.4864502 L 126.31348 3.932579 L 127.811554 4.4049225 L 129.30116 4.9033356 L 130.78185 5.4276733 L 132.25314 5.9777756 L 133.71463 6.553467 L 135.16583 7.154579 L 136.60634 7.7809296 L 138.03568 8.43232 L 139.45345 9.108559 L 140.85919 9.809433 L 142.25249 10.534744 L 143.6329 11.284248 L 145.00005 12.057739 L 146.35347 12.854973 L 147.69278 13.675697 L 149.01756 14.519676 L 150.32741 15.38665 L 151.62193 16.276352 L 152.90073 17.188507 L 154.1634 18.12284 L 155.40958 19.079071 L 156.63889 20.056908 L 157.85094 21.056046 L 159.04536 22.076187 L 160.2218 23.117012 L 161.37991 24.178215 L 162.51932 25.259476 L 163.63966 26.360443 L 164.74063 27.480804 L 165.82188 28.620205 L 166.88309 29.778309 L 167.92392 30.95475 L 168.94406 32.14918 L 169.94319 33.361237 L 170.92102 34.590538 L 171.87726 35.83672 L 172.81158 37.099403 L 173.72374 38.3782 L 174.61343 39.672718 L 175.48041 40.98257 L 176.32437 42.30735 L 177.14511 43.646664 L 177.94234 45.00009 L 178.71582 46.36723 L 179.46533 47.747654 L 180.19064 49.14095 L 180.89151 50.54669 L 181.56775 51.96445 L 182.21913 53.393795 L 182.84547 54.834293 L 183.4466 56.285503 L 184.02228 57.74698 L 184.57236 59.21828 L 185.09671 60.69896 L 185.59512 62.188564 L 186.06746 63.686638 L 186.51358 65.19273 L 186.93335 66.706375 L 187.32663 68.22713 L 187.69333 69.7545 L 188.0333 71.28804 L 188.34647 72.827286 L 188.63272 74.37176 L 188.89197 75.921 L 189.12415 77.47452 L 189.32916 79.03186 L 189.50699 80.59254 L 189.65753 82.15608 L 189.78076 83.722015 L 189.87666 85.28986 L 189.94518 86.859146 L 189.9863 88.42938"/>
<line x1="100" y1="90" x2="110" y2="90" style="stroke:rgb(255,0,0); stroke-width:1"/>
<path fill="none" style="stroke:rgb(255,0,0)" d="M 200 90 L 200 90 L 199.9863 91.57072 L 199.94518 93.14095 L 199.87665 94.710236 L 199.78076 96.27808 L 199.65753 97.84402 L 199.50697 99.40756 L 199.32916 100.96824 L 199.12411 102.52558 L 198.89195 104.0791 L 198.63269 105.62834 L 198.34644 107.17281 L 198.0333 108.71205 L 197.6933 110.2456 L 197.32661 111.77297 L 196.93332 113.29372 L 196.51355 114.807365 L 196.06743 116.31345 L 195.5951 117.81153 L 195.09668 119.30113 L 194.57233 120.781815 L 194.02225 122.25311 L 193.44655 123.71459 L 192.84543 125.1658 L 192.21909 126.60629 L 191.5677 128.03564 L 190.89146 129.4534 L 190.19058 130.85913 L 189.46529 132.25244 L 188.71577 133.63286 L 187.94229 135 L 187.14505 136.35342 L 186.32433 137.69273 L 185.48035 139.01752 L 184.61337 140.32736 L 183.72368 141.62189 L 182.81152 142.90068 L 181.8772 144.16336 L 180.92096 145.40955 L 179.94313 146.63884 L 178.94398 147.85089 L 177.92386 149.04532 L 176.88303 150.22177 L 175.82182 151.37987 L 174.74057 152.51927 L 173.63959 153.63962 L 172.51923 154.7406 L 171.37984 155.82184 L 170.22174 156.88306 L 169.04529 157.92389 L 167.85086 158.94403 L 166.63881 159.94316 L 165.4095 160.92099 L 164.16333 161.87723 L 162.90063 162.81155 L 161.62184 163.72371 L 160.32733 164.6134 L 159.01749 165.48038 L 157.69269 166.32434 L 156.3534 167.14508 L 154.99995 167.94232 L 153.63283 168.71579 L 152.2524 169.4653 L 150.8591 170.19061 L 149.45335 170.89148 L 148.0356 171.56772 L 146.60625 172.21912 L 145.16574 172.84546 L 143.71454 173.44656 L 142.25305 174.02226 L 140.78175 174.57236 L 139.30107 175.0967 L 137.81146 175.59511 L 136.31339 176.06744 L 134.8073 176.51358 L 133.29364 176.93335 L 131.7729 177.32663 L 130.24551 177.69333 L 128.71198 178.0333 L 127.17273 178.34647 L 125.62826 178.63272 L 124.07902 178.89197 L 122.5255 179.12415 L 120.968155 179.32916 L 119.40747 179.50699 L 117.843925 179.65753 L 116.27799 179.78076 L 114.710144 179.87666 L 113.14086 179.94518 L 111.57062 179.9863"/>
<line x1="110" y1="90" x2="110" y2="100" style="stroke:rgb(255,0,0); stroke-width:1"/>
<path fill="none" style="stroke:rgb(255,0,0)" d="M 110 190 L 110 190 L 108.42929 189.9863 L 106.85906 189.94518 L 105.289795 189.87666 L 103.721954 189.78076 L 102.15603 189.65753 L 100.59249 189.50699 L 99.03182 189.32916 L 97.474495 189.12415 L 95.920975 188.89197 L 94.37175 188.63272 L 92.827286 188.34647 L 91.288055 188.03331 L 89.75452 187.69333 L 88.22715 187.32664 L 86.70641 186.93335 L 85.19277 186.51358 L 83.68669 186.06747 L 82.18862 185.59514 L 80.69903 185.09673 L 79.21835 184.57239 L 77.747055 184.02231 L 76.28559 183.44662 L 74.83439 182.84552 L 73.3939 182.21918 L 71.96456 181.5678 L 70.54681 180.89157 L 69.14107 180.1907 L 67.74778 179.4654 L 66.367355 178.7159 L 65.00023 177.94241 L 63.64681 177.1452 L 62.307507 176.32448 L 60.98273 175.4805 L 59.67289 174.61356 L 58.378376 173.72386 L 57.099586 172.81172 L 55.836914 171.8774 L 54.590733 170.92117 L 53.361435 169.94336 L 52.149387 168.94423 L 50.95496 167.9241 L 49.778522 166.88329 L 48.620426 165.8221 L 47.48103 164.74084 L 46.360676 163.6399 L 45.259705 162.51955 L 44.17845 161.38016 L 43.11725 160.22208 L 42.076424 159.04565 L 41.056282 157.85123 L 40.05715 156.63919 L 39.079323 155.4099 L 38.123093 154.16373 L 37.18875 152.90106 L 36.276596 151.62228 L 35.3869 150.32777 L 34.51992 149.01794 L 33.67595 147.69318 L 32.855217 146.35388 L 32.057983 145.00046 L 31.284485 143.63335 L 30.534973 142.25293 L 29.80967 140.85965 L 29.108788 139.45392 L 28.43254 138.03616 L 27.78115 136.60684 L 27.1548 135.16635 L 26.55368 133.71515 L 25.977982 132.2537 L 25.42788 130.7824 L 24.903534 129.30173 L 24.405113 127.81214 L 23.932762 126.31407 L 23.486633 124.808 L 23.066849 123.29436 L 22.673553 121.77363 L 22.306847 120.24626 L 21.966858 118.71273 L 21.653687 117.1735 L 21.367424 115.629036 L 21.108162 114.07982 L 20.875977 112.526306 L 20.670937 110.96898 L 20.49311 109.40831 L 20.342545 107.84477 L 20.219284 106.27885 L 20.123383 104.71101 L 20.054848 103.14174 L 20.013725 101.57151 L 20 100.0008"/>
<line x1="110" y1="100" x2="100" y2="100" style="stroke:rgb(255,0,0); stroke-width:1"/>
<path fill="none" style="stroke:rgb(255,0,0)" d="M 10 99.999985 L 10 99.999985 L 10.013702 98.429276 L 10.054825 96.85905 L 10.123337 95.28978 L 10.219231 93.72194 L 10.342476 92.15601 L 10.493027 90.592476 L 10.670845 89.03181 L 10.875862 87.47448 L 11.10804 85.92097 L 11.367287 84.371735 L 11.653542 82.82727 L 11.966698 81.28804 L 12.306671 79.7545 L 12.673355 78.227135 L 13.066643 76.706406 L 13.486412 75.192764 L 13.932533 73.686676 L 14.404869 72.188614 L 14.903275 70.69901 L 15.427605 69.21834 L 15.977699 67.74704 L 16.553383 66.285576 L 17.154488 64.83437 L 17.780823 63.393883 L 18.432213 61.964546 L 19.108437 60.54679 L 19.80931 59.141056 L 20.534607 57.74777 L 21.284103 56.367348 L 22.057587 55.00022 L 22.854805 53.646797 L 23.67553 52.307495 L 24.519493 50.982723 L 25.386452 49.672882 L 26.276146 48.378365 L 27.188293 47.099575 L 28.122612 45.8369 L 29.078835 44.59072 L 30.056656 43.361423 L 31.055779 42.149376 L 32.075905 40.954952 L 33.116722 39.77851 L 34.177917 38.620415 L 35.259155 37.481018 L 36.36012 36.360664 L 37.48046 35.25969 L 38.61985 34.178444 L 39.77794 33.11724 L 40.954365 32.076416 L 42.148785 31.056282 L 43.36082 30.057144 L 44.59011 29.079308 L 45.83628 28.123077 L 47.098946 27.188744 L 48.37773 26.276588 L 49.672237 25.386887 L 50.98207 24.51992 L 52.306843 23.675941 L 53.646133 22.85521 L 54.99955 22.057976 L 56.366673 21.284485 L 57.74708 20.534973 L 59.14037 19.809662 L 60.546097 19.10878 L 61.963844 18.43254 L 63.39319 17.781136 L 64.83368 17.154785 L 66.28489 16.553658 L 67.74637 15.977966 L 69.21767 15.427849 L 70.69834 14.903503 L 72.18794 14.405083 L 73.68602 13.932732 L 75.19211 13.486595 L 76.70576 13.066818 L 78.2265 12.673515 L 79.753876 12.306816 L 81.287415 11.966827 L 82.82666 11.653656 L 84.37114 11.3673935 L 85.92037 11.108131 L 87.47389 10.875954 L 89.031235 10.670914 L 90.59191 10.493088 L 92.15546 10.342522 L 93.72139 10.219269 L 95.28924 10.123367 L 96.85852 10.054848 L 98.428764 10.013718 L 99.99948 10"/></svg>